<?xml version="1.0" encoding="UTF-8" standalone="no"?>
<!-- Created with Inkscape (http://www.inkscape.org/) -->

<svg
   xmlns:dc="http://purl.org/dc/elements/1.1/"
   xmlns:cc="http://creativecommons.org/ns#"
   xmlns:rdf="http://www.w3.org/1999/02/22-rdf-syntax-ns#"
   xmlns:svg="http://www.w3.org/2000/svg"
   xmlns="http://www.w3.org/2000/svg"
   xmlns:sodipodi="http://sodipodi.sourceforge.net/DTD/sodipodi-0.dtd"
   xmlns:inkscape="http://www.inkscape.org/namespaces/inkscape"
   width="117.60603mm"
   height="175.25999mm"
   viewBox="0 0 416.71429 620.99998"
   id="svg6685"
   version="1.1"
   inkscape:version="0.92.2pre0 (973e216, 2017-07-25)"
   sodipodi:docname="14.svg">
  <defs
     id="defs6687" />
  <sodipodi:namedview
     id="base"
     pagecolor="#ffffff"
     bordercolor="#666666"
     borderopacity="1.0"
     inkscape:pageopacity="0.0"
     inkscape:pageshadow="2"
     inkscape:zoom="0.98994949"
     inkscape:cx="-85.674169"
     inkscape:cy="325.13189"
     inkscape:document-units="px"
     inkscape:current-layer="layer1"
     showgrid="false"
     inkscape:window-width="1600"
     inkscape:window-height="872"
     inkscape:window-x="0"
     inkscape:window-y="0"
     inkscape:window-maximized="1"
     fit-margin-top="0"
     fit-margin-left="0"
     fit-margin-right="0"
     fit-margin-bottom="0"
     inkscape:pagecheckerboard="true" />
  <metadata
     id="metadata6690">
    <rdf:RDF>
      <cc:Work
         rdf:about="">
        <dc:format>image/svg+xml</dc:format>
        <dc:type
           rdf:resource="http://purl.org/dc/dcmitype/StillImage" />
        <dc:title></dc:title>
      </cc:Work>
    </rdf:RDF>
  </metadata>
  <g
     inkscape:label="Capa 1"
     inkscape:groupmode="layer"
     id="layer1"
     transform="translate(-74.499992,-139.00507)">
    <rect
       style="opacity:1;fill:#ffffff;fill-opacity:1;stroke:#000000;stroke-width:1;stroke-linecap:round;stroke-miterlimit:4;stroke-dasharray:none;stroke-dashoffset:0;stroke-opacity:1"
       id="rect4763"
       width="415.71429"
       height="620"
       x="74.999992"
       y="139.50507"
       ry="34.285713" />
    <rect
       style="opacity:1;fill:#ffffff;fill-opacity:1;stroke:#000000;stroke-width:1;stroke-linecap:round;stroke-miterlimit:4;stroke-dasharray:none;stroke-dashoffset:0;stroke-opacity:1"
       id="rect4765"
       width="207.14285"
       height="447.14285"
       x="176.71428"
       y="226.93364"
       ry="0" />
    <text
       xml:space="preserve"
       style="font-style:normal;font-weight:normal;line-height:0%;font-family:sans-serif;letter-spacing:0px;word-spacing:0px;fill:#000000;fill-opacity:1;stroke:none;stroke-width:1px;stroke-linecap:butt;stroke-linejoin:miter;stroke-opacity:1"
       x="93.582268"
       y="229.44388"
       id="text4797"><tspan
         sodipodi:role="line"
         id="tspan4799"
         x="93.582268"
         y="229.44388"
         style="font-size:94.47687531px;line-height:1.25">A</tspan></text>
    <text
       xml:space="preserve"
       style="font-style:normal;font-weight:normal;line-height:0%;font-family:sans-serif;letter-spacing:0px;word-spacing:0px;fill:#000000;fill-opacity:1;stroke:none;stroke-width:1px;stroke-linecap:butt;stroke-linejoin:miter;stroke-opacity:1"
       x="-467.98776"
       y="-674.85645"
       id="text4797-2"
       transform="scale(-1)"><tspan
         sodipodi:role="line"
         id="tspan4799-9"
         x="-467.98776"
         y="-674.85645"
         style="font-size:94.47687531px;line-height:1.25">A</tspan></text>
    <path
       style="fill:#000000;fill-rule:evenodd;stroke:#000000;stroke-width:0.18217872px;stroke-linecap:butt;stroke-linejoin:miter;stroke-opacity:1"
       d="m 113.60645,335.14467 c 7.49547,-3.21868 15.04745,-2.84516 22.63558,-0.17204 -4.84845,-9.46735 -10.22764,-18.71266 -8.4014,-30.97247 0.50887,-0.60612 1.1386,-0.65376 1.83424,-0.39695 8.31052,25.62782 37.26145,5.79117 24.63235,-13.63917 -6.87041,-12.05116 -19.34161,-18.25222 -28.78969,-40.03835 -9.85405,20.98399 -19.35104,23.30107 -29.908097,40.96174 -10.774541,26.23821 19.933907,31.88129 24.870957,13.22852 0.81965,-0.6872 1.44467,-0.46602 2.02405,-0.0318 1.5867,16.41084 -5.42929,21.37588 -8.89799,31.06056 z"
       id="path4213"
       inkscape:connector-curvature="0"
       sodipodi:nodetypes="cccccccccc" />
    <path
       style="fill:#000000;fill-rule:evenodd;stroke:#000000;stroke-width:0.18217872px;stroke-linecap:butt;stroke-linejoin:miter;stroke-opacity:1"
       d="m 422.58084,575.3183 c 7.49547,3.21868 15.04745,2.84516 22.63558,0.17204 -4.84845,9.46735 -10.22764,18.71266 -8.4014,30.97247 0.50887,0.60612 1.1386,0.65376 1.83424,0.39695 8.31052,-25.62782 37.26145,-5.79117 24.63235,13.63917 -6.87041,12.05116 -19.34161,18.25222 -28.78969,40.03835 -9.85405,-20.98399 -19.35104,-23.30107 -29.90809,-40.96174 -10.77455,-26.23821 19.9339,-31.88129 24.87095,-13.22852 0.81965,0.6872 1.44467,0.46602 2.02405,0.0318 1.5867,-16.41084 -5.42929,-21.37588 -8.89799,-31.06056 z"
       id="path4213-1"
       inkscape:connector-curvature="0"
       sodipodi:nodetypes="cccccccccc" />
    <path
       style="fill:#000000;fill-rule:evenodd;stroke:#000000;stroke-width:0.4923023px;stroke-linecap:butt;stroke-linejoin:miter;stroke-opacity:1"
       d="m 249.78524,557.52099 c 20.06536,-8.78007 40.28199,-7.76118 60.59539,-0.46928 -12.97929,-25.82553 -27.37937,-51.04537 -22.49055,-84.48825 1.36227,-1.65342 3.04807,-1.78336 4.91028,-1.08283 22.24724,69.90885 99.7488,15.79742 65.94073,-37.20563 -18.39208,-32.87376 -51.77742,-49.7893 -77.06992,-109.21859 -26.37925,57.24116 -51.80269,63.5618 -80.06389,111.73745 -28.84343,71.57392 53.363,86.96741 66.57946,36.08545 2.19422,-1.87456 3.86739,-1.27124 5.4184,-0.0868 4.24761,44.76629 -14.53419,58.31018 -23.8199,84.72853 z"
       id="path4213-4"
       inkscape:connector-curvature="0"
       sodipodi:nodetypes="cccccccccc" />
  </g>
</svg>
