<?xml version="1.0" encoding="UTF-8" standalone="no"?>
<!-- Created with Inkscape (http://www.inkscape.org/) -->

<svg
   xmlns:dc="http://purl.org/dc/elements/1.1/"
   xmlns:cc="http://creativecommons.org/ns#"
   xmlns:rdf="http://www.w3.org/1999/02/22-rdf-syntax-ns#"
   xmlns:svg="http://www.w3.org/2000/svg"
   xmlns="http://www.w3.org/2000/svg"
   xmlns:sodipodi="http://sodipodi.sourceforge.net/DTD/sodipodi-0.dtd"
   xmlns:inkscape="http://www.inkscape.org/namespaces/inkscape"
   width="117.60603mm"
   height="175.25999mm"
   viewBox="0 0 416.71429 620.99998"
   id="svg9809"
   version="1.1"
   inkscape:version="0.92.2pre0 (973e216, 2017-07-25)"
   sodipodi:docname="15.svg">
  <defs
     id="defs9811" />
  <sodipodi:namedview
     id="base"
     pagecolor="#ffffff"
     bordercolor="#666666"
     borderopacity="1.0"
     inkscape:pageopacity="0.0"
     inkscape:pageshadow="2"
     inkscape:zoom="0.7"
     inkscape:cx="-287.34932"
     inkscape:cy="258.90665"
     inkscape:document-units="px"
     inkscape:current-layer="layer1"
     showgrid="false"
     fit-margin-top="0"
     fit-margin-left="0"
     fit-margin-right="0"
     fit-margin-bottom="0"
     inkscape:window-width="1600"
     inkscape:window-height="872"
     inkscape:window-x="0"
     inkscape:window-y="0"
     inkscape:window-maximized="1"
     inkscape:pagecheckerboard="true" />
  <metadata
     id="metadata9814">
    <rdf:RDF>
      <cc:Work
         rdf:about="">
        <dc:format>image/svg+xml</dc:format>
        <dc:type
           rdf:resource="http://purl.org/dc/dcmitype/StillImage" />
        <dc:title></dc:title>
      </cc:Work>
    </rdf:RDF>
  </metadata>
  <g
     inkscape:label="Capa 1"
     inkscape:groupmode="layer"
     id="layer1"
     transform="translate(-245.92857,0.99493814)">
    <rect
       style="opacity:1;fill:#ffffff;fill-opacity:1;stroke:#000000;stroke-width:1;stroke-linecap:round;stroke-miterlimit:4;stroke-dasharray:none;stroke-dashoffset:0;stroke-opacity:1"
       id="rect4763"
       width="415.71429"
       height="620"
       x="246.42857"
       y="-0.49493814"
       ry="34.285713" />
    <rect
       style="opacity:1;fill:#ffffff;fill-opacity:1;stroke:#000000;stroke-width:1;stroke-linecap:round;stroke-miterlimit:4;stroke-dasharray:none;stroke-dashoffset:0;stroke-opacity:1"
       id="rect4765"
       width="207.14285"
       height="447.14285"
       x="348.14285"
       y="86.933632"
       ry="0" />
    <text
       xml:space="preserve"
       style="font-style:normal;font-weight:normal;line-height:0%;font-family:sans-serif;letter-spacing:0px;word-spacing:0px;fill:#000000;fill-opacity:1;stroke:none;stroke-width:1px;stroke-linecap:butt;stroke-linejoin:miter;stroke-opacity:1"
       x="262.99054"
       y="86.413399"
       id="text4797"><tspan
         sodipodi:role="line"
         id="tspan4799"
         x="262.99054"
         y="86.413399"
         style="font-size:94.47687531px;line-height:1.25">A</tspan></text>
    <text
       xml:space="preserve"
       style="font-style:normal;font-weight:normal;line-height:0%;font-family:sans-serif;letter-spacing:0px;word-spacing:0px;fill:#000000;fill-opacity:1;stroke:none;stroke-width:1px;stroke-linecap:butt;stroke-linejoin:miter;stroke-opacity:1"
       x="-641.43665"
       y="-531.82599"
       id="text4797-2"
       transform="scale(-1)"><tspan
         sodipodi:role="line"
         id="tspan4799-9"
         x="-641.43665"
         y="-531.82599"
         style="font-size:94.47687531px;line-height:1.25">A</tspan></text>
    <path
       style="fill:#000000;fill-rule:evenodd;stroke:#000000;stroke-width:0.21740918px;stroke-linecap:butt;stroke-linejoin:miter;stroke-opacity:1"
       d="m 282.9475,194.08574 c 8.58058,-2.05798 17.13591,-2.71882 25.63076,-0.0298 -5.10381,-8.71851 -9.61225,-18.56455 -10.22952,-35.77955 0.87792,-1.22157 1.95679,-1.43745 3.0733,-1.32082 35.23375,48.14887 53.83297,-44.68257 2.92881,-13.12316 -1.35759,0.20871 -2.58874,-0.9398 -2.85747,-2.41289 49.60958,-53.808478 -57.84426,-49.951116 -9.95128,-0.36856 -0.56024,1.28924 -1.12431,2.57545 -2.56023,3.17189 -50.23859,-34.81812 -38.66238,61.37674 2.19418,12.99302 1.90314,-0.35529 2.65833,0.4972 3.14823,1.62878 -1.75471,14.32466 -3.94336,28.10038 -11.37678,35.24106 z"
       id="path4160"
       inkscape:connector-curvature="0"
       sodipodi:nodetypes="ccccccccccc" />
    <path
       style="fill:#000000;fill-rule:evenodd;stroke:#000000;stroke-width:0.21740918px;stroke-linecap:butt;stroke-linejoin:miter;stroke-opacity:1"
       d="m 595.81617,432.2851 c 8.58058,2.05798 17.13591,2.71882 25.63076,0.0298 -5.10381,8.71851 -9.61225,18.56455 -10.22952,35.77955 0.87792,1.22157 1.95679,1.43745 3.0733,1.32082 35.23375,-48.14887 53.83297,44.68257 2.92881,13.12316 -1.35759,-0.20871 -2.58874,0.9398 -2.85747,2.41289 49.60958,53.80848 -57.84426,49.95112 -9.95128,0.36856 -0.56024,-1.28924 -1.12431,-2.57545 -2.56023,-3.17189 -50.23859,34.81812 -38.66238,-61.37674 2.19418,-12.99302 1.90314,0.35529 2.65833,-0.4972 3.14823,-1.62878 -1.75471,-14.32466 -3.94336,-28.10038 -11.37678,-35.24106 z"
       id="path4160-2"
       inkscape:connector-curvature="0"
       sodipodi:nodetypes="ccccccccccc" />
    <path
       style="fill:#000000;fill-rule:evenodd;stroke:#000000;stroke-width:0.46152759px;stroke-linecap:butt;stroke-linejoin:miter;stroke-opacity:1"
       d="m 423.63677,391.38398 c 18.2153,-4.36879 36.37701,-5.77165 54.41031,-0.0632 -10.83463,-18.50811 -20.40537,-39.4098 -21.71574,-75.95472 1.86369,-2.59319 4.15398,-3.05147 6.52416,-2.80389 74.79602,102.21295 114.27943,-94.85449 6.21741,-27.85853 -2.88196,0.44306 -5.49549,-1.99505 -6.06599,-5.1222 105.31381,-114.22746 -122.79482,-106.03884 -21.12509,-0.78241 -1.18931,2.73687 -2.38674,5.46732 -5.435,6.73346 -106.64909,-73.91371 -82.07451,130.29376 4.65793,27.58226 4.04007,-0.75424 5.64323,1.05547 6.68324,3.45766 -3.72499,30.40915 -8.37119,59.65296 -24.15123,74.81156 z"
       id="path4160-5"
       inkscape:connector-curvature="0"
       sodipodi:nodetypes="ccccccccccc" />
  </g>
</svg>
