<?xml version="1.0" encoding="UTF-8" standalone="no"?>
<!-- Created with Inkscape (http://www.inkscape.org/) -->

<svg
   xmlns:dc="http://purl.org/dc/elements/1.1/"
   xmlns:cc="http://creativecommons.org/ns#"
   xmlns:rdf="http://www.w3.org/1999/02/22-rdf-syntax-ns#"
   xmlns:svg="http://www.w3.org/2000/svg"
   xmlns="http://www.w3.org/2000/svg"
   xmlns:sodipodi="http://sodipodi.sourceforge.net/DTD/sodipodi-0.dtd"
   xmlns:inkscape="http://www.inkscape.org/namespaces/inkscape"
   width="117.60603mm"
   height="175.25999mm"
   viewBox="0 0 416.71429 620.99998"
   id="svg5466"
   version="1.1"
   inkscape:version="0.92.2pre0 (973e216, 2017-07-25)"
   sodipodi:docname="19.svg">
  <defs
     id="defs5468" />
  <sodipodi:namedview
     id="base"
     pagecolor="#ffffff"
     bordercolor="#666666"
     borderopacity="1.0"
     inkscape:pageopacity="0.0"
     inkscape:pageshadow="2"
     inkscape:zoom="0.7"
     inkscape:cx="-252.54644"
     inkscape:cy="337.61574"
     inkscape:document-units="px"
     inkscape:current-layer="layer1"
     showgrid="false"
     inkscape:window-width="1600"
     inkscape:window-height="872"
     inkscape:window-x="0"
     inkscape:window-y="0"
     inkscape:window-maximized="1"
     fit-margin-top="0"
     fit-margin-left="0"
     fit-margin-right="0"
     fit-margin-bottom="0"
     inkscape:pagecheckerboard="true" />
  <metadata
     id="metadata5471">
    <rdf:RDF>
      <cc:Work
         rdf:about="">
        <dc:format>image/svg+xml</dc:format>
        <dc:type
           rdf:resource="http://purl.org/dc/dcmitype/StillImage" />
        <dc:title></dc:title>
      </cc:Work>
    </rdf:RDF>
  </metadata>
  <g
     inkscape:label="Capa 1"
     inkscape:groupmode="layer"
     id="layer1"
     transform="translate(-155.29778,-167.0854)">
    <rect
       style="opacity:1;fill:#ffffff;fill-opacity:1;stroke:#000000;stroke-width:1;stroke-linecap:round;stroke-miterlimit:4;stroke-dasharray:none;stroke-dashoffset:0;stroke-opacity:1"
       id="rect4763"
       width="415.71429"
       height="620"
       x="155.79778"
       y="167.5854"
       ry="34.285713" />
    <rect
       style="opacity:1;fill:#ffffff;fill-opacity:1;stroke:#000000;stroke-width:1;stroke-linecap:round;stroke-miterlimit:4;stroke-dasharray:none;stroke-dashoffset:0;stroke-opacity:1"
       id="rect4765"
       width="207.14285"
       height="447.14285"
       x="257.51205"
       y="259.01398"
       ry="0" />
    <text
       xml:space="preserve"
       style="font-style:normal;font-weight:normal;line-height:0%;font-family:sans-serif;letter-spacing:0px;word-spacing:0px;fill:#000000;fill-opacity:1;stroke:none;stroke-width:1px;stroke-linecap:butt;stroke-linejoin:miter;stroke-opacity:1"
       x="177.41049"
       y="258.53436"
       id="text4797"><tspan
         sodipodi:role="line"
         id="tspan4799"
         x="177.41049"
         y="258.53436"
         style="font-size:94.47687531px;line-height:1.25">K</tspan></text>
    <text
       xml:space="preserve"
       style="font-style:normal;font-weight:normal;line-height:0%;font-family:sans-serif;letter-spacing:0px;word-spacing:0px;fill:#000000;fill-opacity:1;stroke:none;stroke-width:1px;stroke-linecap:butt;stroke-linejoin:miter;stroke-opacity:1"
       x="-561.91748"
       y="-696.87579"
       id="text4797-2"
       transform="scale(-1)"><tspan
         sodipodi:role="line"
         id="tspan4799-9"
         x="-561.91748"
         y="-696.87579"
         style="font-size:94.47687531px;line-height:1.25">K</tspan></text>
    <path
       style="fill:#000000;fill-rule:evenodd;stroke:#000000;stroke-width:0.21359782px;stroke-linecap:butt;stroke-linejoin:miter;stroke-opacity:1"
       d="m 193.83756,359.12921 c 8.43015,-2.0219 16.8355,-2.67116 25.18144,-0.0293 -5.01434,-8.56567 -9.44374,-18.2391 -10.05019,-35.15232 0.86252,-1.20014 1.92248,-1.41224 3.01942,-1.29766 34.61607,47.30479 52.88923,-43.89925 2.87746,-12.8931 -1.33379,0.20505 -2.54335,-0.92332 -2.80738,-2.37059 48.73989,-52.86517 -56.83021,-49.07543 -9.77682,-0.36211 -0.55043,1.26664 -1.1046,2.53033 -2.51535,3.11629 -49.35787,-34.20772 -37.9846,60.30078 2.15571,12.76525 1.86978,-0.34907 2.61173,0.48848 3.09305,1.60023 -1.72395,14.07354 -3.87424,27.60776 -11.17734,34.62326 z"
       id="path4160"
       inkscape:connector-curvature="0"
       sodipodi:nodetypes="ccccccccccc" />
    <path
       style="fill:#000000;fill-rule:evenodd;stroke:#000000;stroke-width:0.21359782px;stroke-linecap:butt;stroke-linejoin:miter;stroke-opacity:1"
       d="m 505.05693,598.32119 c 8.43015,2.0219 16.8355,2.67116 25.18144,0.0293 -5.01434,8.56567 -9.44374,18.2391 -10.05019,35.15232 0.86252,1.20014 1.92248,1.41224 3.01942,1.29766 34.61607,-47.30479 52.88923,43.89925 2.87746,12.8931 -1.33379,-0.20505 -2.54335,0.92332 -2.80738,2.37059 48.73989,52.86517 -56.83021,49.07543 -9.77682,0.36211 -0.55043,-1.26664 -1.1046,-2.53033 -2.51535,-3.11629 -49.35788,34.20772 -37.9846,-60.30078 2.15571,-12.76525 1.86978,0.34907 2.61173,-0.48848 3.09305,-1.60023 -1.72395,-14.07354 -3.87424,-27.60776 -11.17734,-34.62326 z"
       id="path4160-1"
       inkscape:connector-curvature="0"
       sodipodi:nodetypes="ccccccccccc" />
    <path
       style="fill:#000000;fill-rule:evenodd;stroke:#000000;stroke-width:0.5041405px;stroke-linecap:butt;stroke-linejoin:miter;stroke-opacity:1"
       d="m 331.22018,581.73174 c 19.89712,-4.77216 39.7357,-6.30455 59.43403,-0.0691 -11.835,-20.21697 -22.28941,-43.04851 -23.72077,-82.96763 2.03578,-2.83262 4.53753,-3.33322 7.12653,-3.06278 81.70197,111.65029 124.83089,-103.61243 6.79148,-30.43072 -3.14805,0.48398 -6.00289,-2.17925 -6.62607,-5.59513 115.03745,-124.77409 -134.13248,-115.82943 -23.07556,-0.85465 -1.29912,2.98956 -2.60712,5.97213 -5.93682,7.35516 -116.49602,-80.73818 -89.65246,142.32381 5.08799,30.12893 4.41309,-0.82387 6.16428,1.15294 7.30031,3.77692 -4.06892,33.21682 -9.14411,65.16072 -26.38112,81.71893 z"
       id="path4160-7"
       inkscape:connector-curvature="0"
       sodipodi:nodetypes="ccccccccccc" />
  </g>
</svg>
