<?xml version="1.0" encoding="UTF-8" standalone="no"?>
<!-- Created with Inkscape (http://www.inkscape.org/) -->

<svg
   xmlns:dc="http://purl.org/dc/elements/1.1/"
   xmlns:cc="http://creativecommons.org/ns#"
   xmlns:rdf="http://www.w3.org/1999/02/22-rdf-syntax-ns#"
   xmlns:svg="http://www.w3.org/2000/svg"
   xmlns="http://www.w3.org/2000/svg"
   xmlns:sodipodi="http://sodipodi.sourceforge.net/DTD/sodipodi-0.dtd"
   xmlns:inkscape="http://www.inkscape.org/namespaces/inkscape"
   width="117.60603mm"
   height="175.25999mm"
   viewBox="0 0 416.71429 620.99998"
   id="svg13630"
   version="1.1"
   inkscape:version="0.92.2pre0 (973e216, 2017-07-25)"
   sodipodi:docname="2.svg">
  <defs
     id="defs13632" />
  <sodipodi:namedview
     id="base"
     pagecolor="#ffffff"
     bordercolor="#666666"
     borderopacity="1.0"
     inkscape:pageopacity="0.0"
     inkscape:pageshadow="2"
     inkscape:zoom="0.7"
     inkscape:cx="-231.81024"
     inkscape:cy="223.79226"
     inkscape:document-units="px"
     inkscape:current-layer="layer1"
     showgrid="false"
     fit-margin-top="0"
     fit-margin-left="0"
     fit-margin-right="0"
     fit-margin-bottom="0"
     inkscape:window-width="1600"
     inkscape:window-height="872"
     inkscape:window-x="0"
     inkscape:window-y="0"
     inkscape:window-maximized="1"
     inkscape:pagecheckerboard="true" />
  <metadata
     id="metadata13635">
    <rdf:RDF>
      <cc:Work
         rdf:about="">
        <dc:format>image/svg+xml</dc:format>
        <dc:type
           rdf:resource="http://purl.org/dc/dcmitype/StillImage" />
        <dc:title></dc:title>
      </cc:Work>
    </rdf:RDF>
  </metadata>
  <g
     inkscape:label="Capa 1"
     inkscape:groupmode="layer"
     id="layer1"
     transform="translate(-161.64285,-111.86221)">
    <rect
       style="opacity:1;fill:#ffffff;fill-opacity:1;stroke:#000000;stroke-width:1;stroke-linecap:round;stroke-miterlimit:4;stroke-dasharray:none;stroke-dashoffset:0;stroke-opacity:1"
       id="rect4763"
       width="415.71429"
       height="620"
       x="162.14285"
       y="112.36221"
       ry="34.285713" />
    <rect
       style="opacity:1;fill:#ffffff;fill-opacity:1;stroke:#000000;stroke-width:1;stroke-linecap:round;stroke-miterlimit:4;stroke-dasharray:none;stroke-dashoffset:0;stroke-opacity:1"
       id="rect4765"
       width="207.14285"
       height="447.14285"
       x="263.85712"
       y="199.79079"
       ry="0" />
    <text
       xml:space="preserve"
       style="font-style:normal;font-weight:normal;line-height:0%;font-family:sans-serif;letter-spacing:0px;word-spacing:0px;fill:#000000;fill-opacity:1;stroke:none;stroke-width:1px;stroke-linecap:butt;stroke-linejoin:miter;stroke-opacity:1"
       x="183.40892"
       y="197.49535"
       id="text4797"><tspan
         sodipodi:role="line"
         id="tspan4799"
         x="183.40892"
         y="197.49535"
         style="font-size:94.47687531px;line-height:1.25">2</tspan></text>
    <text
       xml:space="preserve"
       style="font-style:normal;font-weight:normal;line-height:0%;font-family:sans-serif;letter-spacing:0px;word-spacing:0px;fill:#000000;fill-opacity:1;stroke:none;stroke-width:1px;stroke-linecap:butt;stroke-linejoin:miter;stroke-opacity:1"
       x="-554.46704"
       y="-645.00946"
       id="text4797-2"
       transform="scale(-1)"><tspan
         sodipodi:role="line"
         id="tspan4799-9"
         x="-554.46704"
         y="-645.00946"
         style="font-size:94.47687531px;line-height:1.25">2</tspan></text>
    <path
       style="fill:#000000;fill-rule:evenodd;stroke:#000000;stroke-width:0.19024166px;stroke-linecap:butt;stroke-linejoin:miter;stroke-opacity:1"
       d="m 201.78313,298.34739 c 7.50834,-1.80082 14.9946,-2.37908 22.42793,-0.026 -4.46603,-7.62904 -8.4111,-16.24472 -8.95123,-31.30853 0.76821,-1.06891 1.71227,-1.25782 2.68925,-1.15577 30.83093,42.13218 47.10598,-39.09902 2.56283,-11.48328 -1.18795,0.18263 -2.26525,-0.82236 -2.5004,-2.11137 43.41034,-47.08455 -50.61603,-43.70921 -8.70777,-0.32251 -0.49023,1.12814 -0.98382,2.25363 -2.2403,2.77553 -43.96077,-30.46723 -33.83112,53.70708 1.91999,11.36941 1.66532,-0.3109 2.32615,0.43506 2.75484,1.42525 -1.53544,12.53465 -3.45061,24.58894 -9.95514,30.83732 z"
       id="path4160"
       inkscape:connector-curvature="0"
       sodipodi:nodetypes="ccccccccccc" />
    <path
       style="fill:#000000;fill-rule:evenodd;stroke:#000000;stroke-width:0.19024166px;stroke-linecap:butt;stroke-linejoin:miter;stroke-opacity:1"
       d="m 512.71403,543.03251 c 7.50834,1.80082 14.9946,2.37908 22.42793,0.026 -4.46603,7.62904 -8.4111,16.24472 -8.95123,31.30853 0.76821,1.06891 1.71227,1.25782 2.68925,1.15577 30.83093,-42.13218 47.10599,39.09902 2.56283,11.48328 -1.18795,-0.18263 -2.26525,0.82236 -2.5004,2.11137 43.41034,47.08455 -50.61602,43.70921 -8.70777,0.32251 -0.49023,-1.12814 -0.98382,-2.25363 -2.2403,-2.77553 -43.96076,30.46723 -33.83111,-53.70708 1.91999,-11.36941 1.66532,0.3109 2.32615,-0.43506 2.75484,-1.42525 -1.53544,-12.53465 -3.45061,-24.58894 -9.95514,-30.83732 z"
       id="path4160-6"
       inkscape:connector-curvature="0"
       sodipodi:nodetypes="ccccccccccc" />
    <path
       style="fill:#000000;fill-rule:evenodd;stroke:#000000;stroke-width:0.45060647px;stroke-linecap:butt;stroke-linejoin:miter;stroke-opacity:1"
       d="m 340.58081,504.18003 c 17.78427,-4.26542 35.51622,-5.63509 53.12281,-0.0617 -10.57826,-18.07015 -19.92253,-38.47725 -21.20189,-74.1574 1.81959,-2.53183 4.05568,-2.97927 6.36977,-2.73754 73.02614,99.79428 111.57525,-92.60996 6.0703,-27.19932 -2.81376,0.43258 -5.36546,-1.94784 -5.92245,-5.001 102.82177,-111.52449 -119.88911,-103.52964 -20.62521,-0.76389 -1.16116,2.6721 -2.33026,5.33795 -5.30638,6.57412 -104.12545,-72.16469 -80.13238,127.21062 4.5477,26.92958 3.94447,-0.73639 5.5097,1.03051 6.52509,3.37585 -3.63684,29.68958 -8.1731,58.24139 -23.57974,73.0413 z"
       id="path4160-1"
       inkscape:connector-curvature="0"
       sodipodi:nodetypes="ccccccccccc" />
  </g>
</svg>
