<?xml version="1.0" encoding="UTF-8" standalone="no"?>
<!-- Created with Inkscape (http://www.inkscape.org/) -->

<svg
   xmlns:dc="http://purl.org/dc/elements/1.1/"
   xmlns:cc="http://creativecommons.org/ns#"
   xmlns:rdf="http://www.w3.org/1999/02/22-rdf-syntax-ns#"
   xmlns:svg="http://www.w3.org/2000/svg"
   xmlns="http://www.w3.org/2000/svg"
   xmlns:sodipodi="http://sodipodi.sourceforge.net/DTD/sodipodi-0.dtd"
   xmlns:inkscape="http://www.inkscape.org/namespaces/inkscape"
   width="117.60603mm"
   height="175.25999mm"
   viewBox="0 0 416.71429 620.99998"
   id="svg11699"
   version="1.1"
   inkscape:version="0.92.2pre0 (973e216, 2017-07-25)"
   sodipodi:docname="7.svg">
  <defs
     id="defs11701" />
  <sodipodi:namedview
     id="base"
     pagecolor="#ffffff"
     bordercolor="#666666"
     borderopacity="1.0"
     inkscape:pageopacity="0.0"
     inkscape:pageshadow="2"
     inkscape:zoom="0.98994949"
     inkscape:cx="-51.178712"
     inkscape:cy="304.4912"
     inkscape:document-units="px"
     inkscape:current-layer="layer1"
     showgrid="false"
     fit-margin-top="0"
     fit-margin-left="0"
     fit-margin-right="0"
     fit-margin-bottom="0"
     inkscape:window-width="1600"
     inkscape:window-height="872"
     inkscape:window-x="0"
     inkscape:window-y="0"
     inkscape:window-maximized="1"
     inkscape:pagecheckerboard="true" />
  <metadata
     id="metadata11704">
    <rdf:RDF>
      <cc:Work
         rdf:about="">
        <dc:format>image/svg+xml</dc:format>
        <dc:type
           rdf:resource="http://purl.org/dc/dcmitype/StillImage" />
        <dc:title></dc:title>
      </cc:Work>
    </rdf:RDF>
  </metadata>
  <g
     inkscape:label="Capa 1"
     inkscape:groupmode="layer"
     id="layer1"
     transform="translate(-245.92857,-104.71935)">
    <rect
       style="opacity:1;fill:#ffffff;fill-opacity:1;stroke:#000000;stroke-width:1;stroke-linecap:round;stroke-miterlimit:4;stroke-dasharray:none;stroke-dashoffset:0;stroke-opacity:1"
       id="rect4763"
       width="415.71429"
       height="620"
       x="246.42857"
       y="105.21935"
       ry="34.285713" />
    <rect
       style="opacity:1;fill:#ffffff;fill-opacity:1;stroke:#000000;stroke-width:1;stroke-linecap:round;stroke-miterlimit:4;stroke-dasharray:none;stroke-dashoffset:0;stroke-opacity:1"
       id="rect4765"
       width="207.14285"
       height="447.14285"
       x="348.14285"
       y="192.64792"
       ry="0" />
    <text
       xml:space="preserve"
       style="font-style:normal;font-weight:normal;line-height:0%;font-family:sans-serif;letter-spacing:0px;word-spacing:0px;fill:#000000;fill-opacity:1;stroke:none;stroke-width:1px;stroke-linecap:butt;stroke-linejoin:miter;stroke-opacity:1"
       x="270.06158"
       y="190.10738"
       id="text4797"><tspan
         sodipodi:role="line"
         id="tspan4799"
         x="270.06158"
         y="190.10738"
         style="font-size:94.47687531px;line-height:1.25">7</tspan></text>
    <text
       xml:space="preserve"
       style="font-style:normal;font-weight:normal;line-height:0%;font-family:sans-serif;letter-spacing:0px;word-spacing:0px;fill:#000000;fill-opacity:1;stroke:none;stroke-width:1px;stroke-linecap:butt;stroke-linejoin:miter;stroke-opacity:1"
       x="-639.41632"
       y="-641.58087"
       id="text4797-2"
       transform="scale(-1)"><tspan
         sodipodi:role="line"
         id="tspan4799-9"
         x="-639.41632"
         y="-641.58087"
         style="font-size:94.47687531px;line-height:1.25">7</tspan></text>
    <path
       style="fill:#000000;fill-rule:evenodd;stroke:#000000;stroke-width:0.18429129px;stroke-linecap:butt;stroke-linejoin:miter;stroke-opacity:1"
       d="m 285.56852,290.67857 c 7.58239,-3.256 15.22194,-2.87816 22.89806,-0.17403 -4.90467,-9.57714 -10.34624,-18.92967 -8.49883,-31.33162 0.51478,-0.61317 1.15182,-0.66134 1.85552,-0.40157 8.40688,25.925 37.69354,5.85832 24.91798,-13.79733 -6.95007,-12.19091 -19.56588,-18.46387 -29.12353,-40.50262 -9.96831,21.22731 -19.57543,23.57125 -30.25491,41.43671 -10.89948,26.54248 20.16506,32.251 25.15935,13.38194 0.82916,-0.69517 1.46143,-0.47143 2.04754,-0.0322 1.60509,16.60113 -5.49226,21.62375 -9.00118,31.42074 z"
       id="path4213"
       inkscape:connector-curvature="0"
       sodipodi:nodetypes="cccccccccc" />
    <path
       style="fill:#000000;fill-rule:evenodd;stroke:#000000;stroke-width:0.18429129px;stroke-linecap:butt;stroke-linejoin:miter;stroke-opacity:1"
       d="m 596.19043,541.48839 c 7.58239,3.256 15.22194,2.87816 22.89806,0.17403 -4.90467,9.57714 -10.34624,18.92967 -8.49883,31.33162 0.51478,0.61317 1.15182,0.66134 1.85552,0.40157 8.40688,-25.925 37.69354,-5.85832 24.91798,13.79733 -6.95007,12.19091 -19.56588,18.46387 -29.12353,40.50262 -9.96831,-21.22731 -19.57543,-23.57125 -30.25491,-41.43671 -10.89948,-26.54248 20.16506,-32.251 25.15935,-13.38194 0.82916,0.69517 1.46143,0.47143 2.04754,0.0322 1.60509,-16.60113 -5.49226,-21.62375 -9.00118,-31.42074 z"
       id="path4213-3"
       inkscape:connector-curvature="0"
       sodipodi:nodetypes="cccccccccc" />
    <path
       style="fill:#000000;fill-rule:evenodd;stroke:#000000;stroke-width:0.4927578px;stroke-linecap:butt;stroke-linejoin:miter;stroke-opacity:1"
       d="m 419.044,524.24022 c 20.27379,-8.7059 40.70042,-7.69561 61.22481,-0.46532 -13.1141,-25.60733 -27.66377,-50.61412 -22.72416,-83.77445 1.37642,-1.63947 3.07973,-1.7683 4.96128,-1.0737 22.47833,69.31824 100.78493,15.66397 66.62568,-36.89129 -18.58312,-32.59603 -52.31526,-49.36866 -77.87046,-108.29587 -26.65327,56.75756 -52.34078,63.02481 -80.89555,110.79345 -29.14303,70.96924 53.91731,86.23267 67.27105,35.78058 2.21701,-1.85871 3.90756,-1.26048 5.47468,-0.0861 4.29172,44.3881 -14.68517,57.81756 -24.06733,84.01271 z"
       id="path4213-9"
       inkscape:connector-curvature="0"
       sodipodi:nodetypes="cccccccccc" />
  </g>
</svg>
