<?xml version="1.0" encoding="UTF-8" standalone="no"?>
<!-- Created with Inkscape (http://www.inkscape.org/) -->

<svg
   xmlns:dc="http://purl.org/dc/elements/1.1/"
   xmlns:cc="http://creativecommons.org/ns#"
   xmlns:rdf="http://www.w3.org/1999/02/22-rdf-syntax-ns#"
   xmlns:svg="http://www.w3.org/2000/svg"
   xmlns="http://www.w3.org/2000/svg"
   xmlns:sodipodi="http://sodipodi.sourceforge.net/DTD/sodipodi-0.dtd"
   xmlns:inkscape="http://www.inkscape.org/namespaces/inkscape"
   width="416.71429"
   height="621"
   viewBox="0 0 416.7143 621.00001"
   id="svg4215"
   version="1.1"
   inkscape:version="0.92.2pre0 (973e216, 2017-07-25)"
   sodipodi:docname="8.svg">
  <defs
     id="defs4217" />
  <sodipodi:namedview
     id="base"
     pagecolor="#ffffff"
     bordercolor="#666666"
     borderopacity="1.0"
     inkscape:pageopacity="0.0"
     inkscape:pageshadow="2"
     inkscape:zoom="0.7"
     inkscape:cx="-60.383386"
     inkscape:cy="270.07994"
     inkscape:document-units="px"
     inkscape:current-layer="layer1"
     showgrid="false"
     inkscape:window-width="1600"
     inkscape:window-height="872"
     inkscape:window-x="0"
     inkscape:window-y="0"
     inkscape:window-maximized="1"
     fit-margin-top="0"
     fit-margin-left="0"
     fit-margin-right="0"
     fit-margin-bottom="0"
     inkscape:pagecheckerboard="true" />
  <metadata
     id="metadata4220">
    <rdf:RDF>
      <cc:Work
         rdf:about="">
        <dc:format>image/svg+xml</dc:format>
        <dc:type
           rdf:resource="http://purl.org/dc/dcmitype/StillImage" />
        <dc:title></dc:title>
      </cc:Work>
    </rdf:RDF>
  </metadata>
  <g
     inkscape:label="Capa 1"
     inkscape:groupmode="layer"
     id="layer1"
     transform="translate(-159.5,-234.71936)">
    <rect
       style="fill:#ffffff;fill-opacity:1;stroke:#000000;stroke-width:1;stroke-linecap:round;stroke-miterlimit:4;stroke-opacity:1;stroke-dasharray:none;stroke-dashoffset:0"
       id="rect4763"
       width="415.71429"
       height="620"
       x="160"
       y="235.21936"
       ry="34.285713" />
    <rect
       style="fill:#ffffff;fill-opacity:1;stroke:#000000;stroke-width:1;stroke-linecap:round;stroke-miterlimit:4;stroke-opacity:1;stroke-dasharray:none;stroke-dashoffset:0"
       id="rect4765"
       width="207.14285"
       height="447.14285"
       x="261.71429"
       y="326.64795"
       ry="0" />
    <path
       style="fill:#000000;fill-rule:evenodd;stroke:#000000;stroke-width:0.19860195px;stroke-linecap:butt;stroke-linejoin:miter;stroke-opacity:1"
       d="m 201.30522,433.76078 c 8.17117,-3.50884 16.40395,-3.10165 24.67614,-0.18755 -5.28553,-10.32082 -11.14965,-20.3996 -9.15878,-33.7646 0.55475,-0.66076 1.24126,-0.71269 1.9996,-0.43273 9.05971,27.93813 40.62054,6.31322 26.85293,-14.86874 -7.48978,-13.13756 -21.08523,-19.89763 -31.38505,-43.64776 -10.74237,22.87567 -21.09551,25.40164 -32.60428,44.65439 -11.74585,28.60356 21.73093,34.75537 27.11304,14.42107 0.89355,-0.74914 1.57491,-0.50803 2.20653,-0.0347 1.72974,17.89026 -5.91874,23.30289 -9.70013,33.86063 z"
       id="path4213"
       inkscape:connector-curvature="0"
       sodipodi:nodetypes="cccccccccc" />
    <path
       style="fill:#000000;fill-rule:evenodd;stroke:#000000;stroke-width:0.19860195px;stroke-linecap:butt;stroke-linejoin:miter;stroke-opacity:1"
       d="m 509.40174,661.83143 c 8.17117,3.50884 16.40395,3.10165 24.67614,0.18755 -5.28553,10.32082 -11.14965,20.3996 -9.15878,33.7646 0.55475,0.66076 1.24126,0.71269 1.9996,0.43273 9.05971,-27.93813 40.62054,-6.31322 26.85293,14.86874 -7.48978,13.13756 -21.08523,19.89763 -31.38505,43.64776 -10.74237,-22.87567 -21.09551,-25.40164 -32.60428,-44.65439 -11.74585,-28.60356 21.73093,-34.75537 27.11304,-14.42107 0.89355,0.74914 1.57491,0.50803 2.20653,0.0347 1.72974,-17.89026 -5.91874,-23.30289 -9.70013,-33.86063 z"
       id="path4213-4"
       inkscape:connector-curvature="0"
       sodipodi:nodetypes="cccccccccc" />
    <text
       xml:space="preserve"
       style="font-style:normal;font-weight:normal;line-height:0%;font-family:sans-serif;letter-spacing:0px;word-spacing:0px;fill:#000000;fill-opacity:1;stroke:none"
       x="181.61272"
       y="326.16833"
       id="text4797"><tspan
         sodipodi:role="line"
         id="tspan4799"
         x="181.61272"
         y="326.16833"
         style="font-size:94.47687531px;line-height:1.25">8</tspan></text>
    <text
       xml:space="preserve"
       style="font-style:normal;font-weight:normal;line-height:0%;font-family:sans-serif;letter-spacing:0px;word-spacing:0px;fill:#000000;fill-opacity:1;stroke:none"
       x="492.21741"
       y="-764.50977"
       id="text4797-2"
       transform="scale(1,-1)"><tspan
         sodipodi:role="line"
         id="tspan4799-9"
         x="492.21741"
         y="-764.50977"
         style="font-size:94.47687531px;line-height:1.25">8</tspan></text>
    <path
       style="fill:#000000;fill-rule:evenodd;stroke:#000000;stroke-width:0.46764269px;stroke-linecap:butt;stroke-linejoin:miter;stroke-opacity:1"
       d="m 336.47519,643.78131 c 19.24046,-8.26217 38.62598,-7.30339 58.10428,-0.4416 -12.4457,-24.30218 -26.25379,-48.0344 -21.56595,-79.50462 1.30626,-1.55589 2.92276,-1.67816 4.70841,-1.01896 21.33265,65.7852 95.64809,14.8656 63.22988,-35.01101 -17.63598,-30.93466 -49.64883,-46.85242 -73.90153,-102.7762 -25.2948,53.86472 -49.67306,59.81254 -76.77244,105.14648 -27.65765,67.35206 51.16923,81.83755 63.84235,33.95691 2.10402,-1.76398 3.70841,-1.19624 5.19565,-0.0818 4.07298,42.12571 -13.93669,54.8707 -22.84065,79.73074 z"
       id="path4213-40"
       inkscape:connector-curvature="0"
       sodipodi:nodetypes="cccccccccc" />
  </g>
</svg>
